<?xml version="1.0" standalone="no"?>
<!DOCTYPE svg PUBLIC "-//W3C//DTD SVG 20010904//EN"
 "http://www.w3.org/TR/2001/REC-SVG-20010904/DTD/svg10.dtd">
<svg version="1.0" xmlns="http://www.w3.org/2000/svg"
 width="700.000000pt" height="700.000000pt" viewBox="0 0 700.000000 700.000000"
 preserveAspectRatio="xMidYMid meet">
<metadata>
Created by potrace 1.11, written by Peter Selinger 2001-2013
</metadata>
<g transform="translate(0.000000,700.000000) scale(0.100000,-0.100000)"
fill="#000000" stroke="none">
<path d="M0 3500 l0 -3500 3500 0 3500 0 0 3500 0 3500 -3500 0 -3500 0 0
-3500z m2640 1597 c465 -87 832 -344 1024 -715 39 -77 96 -211 96 -227 0 -3
-160 -5 -355 -5 l-354 0 -37 58 c-74 116 -206 223 -342 278 -111 45 -172 56
-327 61 -124 4 -167 1 -245 -15 -359 -74 -604 -317 -708 -701 -24 -89 -26
-112 -26 -306 0 -195 2 -217 26 -305 54 -197 117 -317 231 -437 160 -169 357
-260 613 -283 242 -23 477 31 648 150 83 56 188 180 243 286 40 76 103 248
103 280 0 2 -243 4 -540 4 l-540 0 0 235 0 235 845 0 845 0 0 -272 c0 -257 -1
-278 -24 -363 -147 -548 -593 -965 -1161 -1085 -132 -28 -403 -38 -553 -20
-368 43 -682 191 -932 440 -253 254 -401 573 -439 949 -34 333 21 666 157 936
144 289 358 509 643 659 165 87 324 140 518 171 116 19 473 14 591 -8z m2849
-83 c130 -33 273 -127 362 -238 64 -78 103 -154 134 -261 24 -81 27 -112 32
-296 l6 -207 106 -4 c123 -5 163 -20 227 -90 83 -90 79 -41 79 -938 0 -791 0
-795 -21 -841 -31 -66 -86 -123 -147 -150 l-52 -24 -900 0 -900 0 -51 27 c-59
31 -108 84 -138 147 -21 46 -21 54 -21 841 0 758 1 797 19 844 23 59 85 129
141 159 40 22 47 22 638 25 l599 3 -4 237 c-3 231 -4 238 -28 281 -42 74 -78
86 -250 86 -127 0 -150 -3 -185 -21 -61 -31 -86 -86 -93 -195 l-5 -89 -208 0
-209 0 6 58 c30 295 209 534 469 628 122 44 264 51 394 18z"/>
<path d="M4880 2980 l0 -460 440 0 440 0 0 460 0 460 -440 0 -440 0 0 -460z
m561 264 c152 -76 199 -278 101 -427 -46 -70 -136 -117 -222 -117 -239 0 -363
298 -200 484 80 90 211 115 321 60z"/>
</g>
</svg>
