<svg width="104" height="64" viewBox="0 0 104 64" fill="none" xmlns="http://www.w3.org/2000/svg">
<path d="M54.0031 0.445312C42.1109 0.457505 30.7832 6.47901 24.229 16.5625C8.98575 16.6178 0.0322342 28.7467 0.108516 40.2723C0.108516 53.34 10.7288 63.9549 23.7495 63.9549H86.2967C95.9645 63.9549 103.859 56.0527 103.859 46.341C103.859 37.3991 97.2229 30.0839 88.9377 28.9379C85.6043 12.3984 71.0691 0.465652 54.0031 0.445312ZM54.0031 7.41198C68.5516 7.42936 80.7536 18.2232 82.5682 32.639C82.7802 34.3814 84.2499 35.6943 85.9927 35.7005H86.2966C92.2755 35.7005 96.9418 40.3919 96.9418 46.341C96.9418 52.2901 92.2755 56.9883 86.2966 56.9883H23.7494C14.4177 56.9883 7.02512 49.5773 7.02512 40.2723C7.02512 30.9674 14.4177 23.5632 23.7494 23.5632H26.1C27.3288 23.5641 28.4644 22.9031 29.0855 21.8352C34.2262 12.9231 43.7044 7.42268 54.0031 7.41198ZM58.2653 15.9774C53.653 15.9774 53.653 22.9441 58.2653 22.9441C59.3075 22.9453 60.2964 23.1259 61.2035 23.4544C62.1106 23.7829 62.9252 24.2662 63.6284 24.8491C64.3313 25.4319 64.905 26.1195 65.3373 26.8765C65.7695 27.6334 66.0627 28.4606 66.1815 29.3461C66.579 34.2403 73.9579 33.2132 73.0239 28.3936C72.7823 26.5931 72.1976 24.9167 71.3353 23.4067C70.4731 21.8968 69.3423 20.5716 68.0188 19.4744C66.6955 18.3773 65.1759 17.4997 63.5271 16.9027C61.8783 16.3057 60.1062 15.9796 58.2653 15.9774ZM24.3101 43.0481C19.6979 43.0481 19.6979 50.0216 24.3101 50.0216H38.1502C42.7624 50.0216 42.7624 43.0481 38.1502 43.0481H24.3101ZM72.7403 43.0551C71.8231 43.0551 70.9434 43.4221 70.2949 44.0753C69.6463 44.7286 69.2819 45.6146 69.2819 46.5384C69.2819 46.9959 69.3714 47.4488 69.5452 47.8714C69.719 48.2941 69.9737 48.678 70.2949 49.0015C70.616 49.325 70.9972 49.5815 71.4168 49.7566C71.8364 49.9317 72.2861 50.0218 72.7403 50.0218C73.1944 50.0218 73.6441 49.9317 74.0637 49.7566C74.4833 49.5815 74.8645 49.325 75.1857 49.0015C75.5068 48.6781 75.7616 48.2941 75.9354 47.8714C76.1092 47.4488 76.1986 46.9959 76.1986 46.5384C76.1986 46.081 76.1092 45.628 75.9354 45.2054C75.7616 44.7828 75.5068 44.3988 75.1857 44.0753C74.8645 43.7519 74.4833 43.4953 74.0637 43.3202C73.6441 43.1452 73.1944 43.0551 72.7403 43.0551ZM83.1153 43.0551C82.1981 43.0551 81.3184 43.4221 80.6699 44.0753C80.0213 44.7286 79.6569 45.6146 79.6569 46.5384C79.6569 46.9959 79.7464 47.4488 79.9202 47.8714C80.094 48.2941 80.3487 48.678 80.6699 49.0015C80.991 49.325 81.3722 49.5815 81.7918 49.7566C82.2114 49.9317 82.6611 50.0218 83.1153 50.0218C83.5694 50.0218 84.0191 49.9317 84.4387 49.7566C84.8583 49.5815 85.2396 49.325 85.5607 49.0015C85.8818 48.6781 86.1366 48.2941 86.3104 47.8714C86.4842 47.4488 86.5736 46.9959 86.5736 46.5384C86.5736 46.081 86.4842 45.628 86.3104 45.2054C86.1366 44.7828 85.8818 44.3988 85.5607 44.0753C85.2396 43.7519 84.8583 43.4953 84.4387 43.3202C84.0191 43.1452 83.5694 43.0551 83.1153 43.0551Z" fill="black"/>
</svg>
