<svg width="85" height="52" viewBox="0 0 85 52" fill="none" xmlns="http://www.w3.org/2000/svg">
<path d="M76.3891 1.5918H8.61092V5.47984H76.3891V1.5918Z" fill="black"/>
<path fill-rule="evenodd" clip-rule="evenodd" d="M7.61514 0.597656H77.3849V45.0415H7.61514V0.597656ZM9.60733 2.58516H75.3927V43.054H9.60733V2.58516Z" fill="black"/>
<path fill-rule="evenodd" clip-rule="evenodd" d="M0.498047 43.874H84.502V47.2081C84.502 48.3674 84.0404 49.4821 83.217 50.3019C82.3952 51.1218 81.2796 51.5822 80.1175 51.5822H4.88252C3.72041 51.5822 2.60479 51.1218 1.78301 50.3019C0.95957 49.4821 0.498047 48.3674 0.498047 47.2081V43.874ZM2.49023 45.8615H82.5098V47.2081C82.5098 47.8407 82.2574 48.4486 81.8092 48.8958C81.3609 49.343 80.7517 49.5947 80.1175 49.5947H4.88252C4.24834 49.5947 3.63906 49.343 3.19082 48.8958C2.74258 48.4486 2.49023 47.8407 2.49023 47.2081V45.8615Z" fill="black"/>
<path d="M22.6608 20.3218C21.6352 19.1444 20.1234 18.3994 18.4387 18.3994C15.3525 18.3994 12.847 20.899 12.847 23.978C12.847 27.0568 15.3526 29.5564 18.4387 29.5564C21.5249 29.5564 24.0304 27.0563 24.0304 23.978C24.0304 23.4127 23.9459 22.867 23.789 22.3526L18.4387 23.978L22.6608 20.3218Z" fill="black"/>
<path d="M23.5643 30.7969H24.5604V32.7844H23.5643H14.8667H13.8706V30.7969H14.8667H23.5643Z" fill="black"/>
<path d="M23.5642 34.1768H24.5603V36.1642H23.5642H13.3128H12.3167V34.1768H13.3128H23.5642Z" fill="black"/>
<path d="M68.4515 13.8212L69.1488 13.1123L70.5699 14.5069L69.8726 15.2141L59.8237 25.4149L50.7128 24.2373L41.1719 34.7876L30.4971 28.951L29.6238 28.474L30.5801 26.7316L31.4533 27.2086L40.7469 32.29L49.9325 22.1322L59.0966 23.3165L68.4515 13.8212Z" fill="black"/>
<path d="M31.1446 30.7289C32.5176 30.7289 33.6306 29.6185 33.6306 28.2487C33.6306 26.879 32.5176 25.7686 31.1446 25.7686C29.7716 25.7686 28.6586 26.879 28.6586 28.2487C28.6586 29.6185 29.7716 30.7289 31.1446 30.7289Z" fill="black"/>
<path d="M40.7335 35.7934C42.1065 35.7934 43.2195 34.6829 43.2195 33.3132C43.2195 31.9434 42.1065 30.833 40.7335 30.833C39.3605 30.833 38.2475 31.9434 38.2475 33.3132C38.2475 34.6829 39.3605 35.7934 40.7335 35.7934Z" fill="black"/>
<path d="M50.3224 25.7689C51.6954 25.7689 52.8084 24.6585 52.8084 23.2888C52.8084 21.919 51.6954 20.8086 50.3224 20.8086C48.9494 20.8086 47.8363 21.919 47.8363 23.2888C47.8363 24.6585 48.9494 25.7689 50.3224 25.7689Z" fill="black"/>
<path d="M59.46 26.5092C60.833 26.5092 61.946 25.3988 61.946 24.029C61.946 22.6592 60.833 21.5488 59.46 21.5488C58.087 21.5488 56.974 22.6592 56.974 24.029C56.974 25.3988 58.087 26.5092 59.46 26.5092Z" fill="black"/>
<path d="M69.667 16.3021C71.04 16.3021 72.153 15.1917 72.153 13.822C72.153 12.4522 71.04 11.3418 69.667 11.3418C68.294 11.3418 67.181 12.4522 67.181 13.822C67.181 15.1917 68.294 16.3021 69.667 16.3021Z" fill="black"/>
</svg>
