<svg width="80" height="65" viewBox="0 0 80 65" fill="none" xmlns="http://www.w3.org/2000/svg">
<path d="M39.9479 0.605572C39.4675 0.591354 38.9935 0.717776 38.5844 0.969205L1.713 23.0123C1.41793 23.168 1.15777 23.3819 0.948397 23.6411C0.739018 23.9003 0.584807 24.1992 0.495168 24.5198C0.405529 24.8403 0.38234 25.1756 0.427016 25.5054C0.471693 25.8351 0.583298 26.1524 0.755025 26.4377C0.926752 26.7231 1.155 26.9706 1.42586 27.1651C1.69671 27.3597 2.00449 27.4972 2.33042 27.5693C2.65636 27.6414 2.99362 27.6466 3.32163 27.5846C3.64965 27.5225 3.96155 27.3946 4.2383 27.2084L5.43375 26.4955V61.73C5.43126 62.3797 5.68781 63.0037 6.14698 63.465C6.60615 63.9262 7.23033 64.1867 7.88224 64.1893H71.7927C72.1171 64.1905 72.4385 64.1278 72.7385 64.0046C73.0384 63.8815 73.311 63.7004 73.5404 63.4717C73.7698 63.2431 73.9515 62.9715 74.0751 62.6726C74.1986 62.3736 74.2616 62.0533 74.2604 61.73V26.4955L75.4558 27.2084C75.7326 27.3945 76.0445 27.5225 76.3725 27.5845C76.7005 27.6465 77.0377 27.6413 77.3636 27.5692C77.6896 27.4971 77.9973 27.3596 78.2682 27.165C78.539 26.9705 78.7673 26.723 78.939 26.4376C79.1107 26.1523 79.2223 25.8351 79.267 25.5054C79.3117 25.1756 79.2885 24.8403 79.1989 24.5198C79.1092 24.1992 78.955 23.9003 78.7457 23.6411C78.5363 23.3819 78.2762 23.168 77.9812 23.0123L41.1098 0.96921C40.7592 0.752805 40.3596 0.627753 39.9479 0.605572ZM39.8375 5.92136L69.3442 23.5577V59.2898H10.3548V23.5529L39.8375 5.92136ZM22.6164 22.6486C17.2118 22.6486 12.8033 27.0662 12.8033 32.4525C12.8033 35.3875 14.1403 38.0006 16.2071 39.8017C14.1403 41.6028 12.8033 44.216 12.8033 47.151C12.8033 52.5373 17.2118 56.9548 22.6164 56.9548H57.0394C62.444 56.9548 66.8765 52.5373 66.8765 47.151C66.8765 44.2165 65.5342 41.6028 63.463 39.8017C65.5342 38.0007 66.8765 35.387 66.8765 32.4525C66.8765 27.0662 62.444 22.6486 57.0394 22.6486H22.6164ZM22.6164 27.5482H57.0394C59.8054 27.5482 61.9555 29.6958 61.9555 32.4525C61.9555 35.2092 59.8054 37.352 57.0394 37.352H22.6164C19.8503 37.352 17.7003 35.2092 17.7003 32.4525C17.7003 29.6958 19.8503 27.5482 22.6164 27.5482ZM47.2166 30.0075C46.895 30.0075 46.5767 30.0708 46.2796 30.1939C45.9825 30.317 45.7126 30.4974 45.4852 30.7249C45.2579 30.9524 45.0775 31.2225 44.9545 31.5197C44.8314 31.8169 44.7681 32.1355 44.7681 32.4572C44.7681 32.779 44.8314 33.0975 44.9545 33.3948C45.0775 33.692 45.2579 33.9621 45.4852 34.1896C45.7126 34.417 45.9825 34.5975 46.2796 34.7206C46.5767 34.8437 46.8951 34.907 47.2166 34.907C47.5381 34.907 47.8565 34.8437 48.1536 34.7206C48.4506 34.5975 48.7205 34.417 48.9479 34.1896C49.1753 33.9621 49.3556 33.692 49.4787 33.3948C49.6017 33.0975 49.6651 32.779 49.6651 32.4572C49.6651 32.1355 49.6017 31.8169 49.4787 31.5197C49.3556 31.2225 49.1753 30.9524 48.9479 30.7249C48.7205 30.4974 48.4506 30.317 48.1536 30.1939C47.8565 30.0708 47.5381 30.0075 47.2166 30.0075ZM54.5909 30.0075C54.2693 30.0075 53.9509 30.0708 53.6539 30.1939C53.3568 30.317 53.0869 30.4974 52.8595 30.7249C52.6322 30.9524 52.4518 31.2225 52.3287 31.5197C52.2057 31.8169 52.1424 32.1355 52.1424 32.4572C52.1424 32.779 52.2057 33.0975 52.3288 33.3948C52.4518 33.692 52.6322 33.9621 52.8595 34.1896C53.0869 34.417 53.3568 34.5975 53.6539 34.7206C53.9509 34.8437 54.2693 34.907 54.5909 34.907C54.9124 34.907 55.2308 34.8437 55.5278 34.7206C55.8249 34.5975 56.0948 34.417 56.3222 34.1896C56.5496 33.9621 56.7299 33.692 56.853 33.3948C56.976 33.0975 57.0394 32.779 57.0394 32.4572C57.0394 32.1355 56.976 31.8169 56.853 31.5197C56.7299 31.2225 56.5496 30.9524 56.3222 30.7249C56.0948 30.4974 55.8249 30.317 55.5278 30.1939C55.2308 30.0708 54.9124 30.0075 54.5909 30.0075ZM24.8489 30.0124C24.2072 30.0574 23.6086 30.3509 23.1814 30.8302C22.7541 31.3095 22.5321 31.9364 22.5629 32.5768C22.5936 33.2172 22.8747 33.8201 23.3459 34.2565C23.8171 34.693 24.4411 34.9282 25.0842 34.9119H34.9213C35.5638 34.8977 36.1752 34.6334 36.6246 34.1755C37.074 33.7177 37.3256 33.1026 37.3256 32.4621C37.3256 31.8217 37.074 31.2066 36.6246 30.7488C36.1752 30.2909 35.5638 30.0266 34.9213 30.0124H25.0841C25.0058 30.0086 24.9273 30.0086 24.8489 30.0124ZM22.6164 42.2516H57.0394C59.8054 42.2516 61.9555 44.3944 61.9555 47.1511C61.9555 49.9079 59.8054 52.0554 57.0394 52.0554H22.6164C19.8503 52.0554 17.7003 49.9079 17.7003 47.1511C17.7003 44.3944 19.8503 42.2516 22.6164 42.2516ZM47.2166 44.7061C46.8951 44.706 46.5767 44.7694 46.2796 44.8925C45.9825 45.0156 45.7126 45.196 45.4852 45.4235C45.2579 45.651 45.0775 45.921 44.9545 46.2183C44.8314 46.5155 44.7681 46.8341 44.7681 47.1558C44.7681 47.4775 44.8314 47.7961 44.9545 48.0933C45.0775 48.3906 45.2579 48.6606 45.4852 48.8881C45.7126 49.1156 45.9825 49.2961 46.2796 49.4192C46.5767 49.5423 46.895 49.6056 47.2166 49.6056C47.5381 49.6056 47.8565 49.5423 48.1536 49.4192C48.4506 49.2961 48.7205 49.1156 48.9479 48.8881C49.1753 48.6606 49.3556 48.3906 49.4787 48.0933C49.6017 47.7961 49.6651 47.4775 49.6651 47.1558C49.6651 46.8341 49.6017 46.5155 49.4787 46.2183C49.3556 45.921 49.1753 45.651 48.9479 45.4235C48.7205 45.196 48.4506 45.0156 48.1536 44.8925C47.8565 44.7694 47.5381 44.706 47.2166 44.7061ZM54.5909 44.7061C54.2693 44.706 53.9509 44.7694 53.6539 44.8925C53.3568 45.0156 53.0869 45.196 52.8595 45.4235C52.6322 45.651 52.4518 45.921 52.3287 46.2183C52.2057 46.5155 52.1424 46.8341 52.1424 47.1558C52.1424 47.4775 52.2057 47.7961 52.3287 48.0933C52.4518 48.3906 52.6322 48.6606 52.8595 48.8881C53.0869 49.1156 53.3568 49.2961 53.6539 49.4192C53.9509 49.5423 54.2693 49.6056 54.5909 49.6056C54.9124 49.6056 55.2308 49.5423 55.5278 49.4192C55.8249 49.2961 56.0948 49.1156 56.3222 48.8881C56.5496 48.6606 56.7299 48.3906 56.853 48.0933C56.976 47.7961 57.0394 47.4775 57.0394 47.1558C57.0394 46.8341 56.976 46.5155 56.853 46.2183C56.7299 45.921 56.5496 45.651 56.3222 45.4235C56.0948 45.196 55.8249 45.0156 55.5278 44.8925C55.2308 44.7694 54.9124 44.706 54.5909 44.7061ZM24.8489 44.711C24.1971 44.7431 23.5848 45.0317 23.1463 45.5134C22.7079 45.9951 22.4791 46.6305 22.5103 47.2801C22.5415 47.9297 22.83 48.5405 23.3126 48.9783C23.7951 49.4161 24.4323 49.6452 25.0842 49.6152H34.9213C35.5732 49.6141 36.1979 49.3553 36.6584 48.8955C37.1189 48.4358 37.3775 47.8127 37.3775 47.1631C37.3775 46.5135 37.1189 45.8904 36.6584 45.4307C36.1979 44.9709 35.5732 44.7121 34.9213 44.711H25.0841C25.0058 44.7072 24.9273 44.7072 24.8489 44.711Z" fill="black"/>
</svg>
