<svg width="61" height="61" viewBox="0 0 61 61" fill="none" xmlns="http://www.w3.org/2000/svg">
<path d="M1.45238 29.0471C0.650286 29.0471 8.01714e-05 29.6974 0 30.4994V42.1185C8.01714e-05 42.9206 0.650286 43.5708 1.45238 43.5709H2.90618V46.4771H1.4538C0.651705 46.4771 0.00149851 47.1273 0.00141834 47.9294V59.5456C0.00149851 60.3477 0.651705 60.9979 1.4538 60.998H59.5476C60.3497 60.9979 60.9999 60.3477 61 59.5456V47.9294C60.9999 47.1273 60.3497 46.4771 59.5476 46.4771H58.0938V43.5709H59.5476C60.3497 43.5708 60.9999 42.9206 61 42.1185V30.4994C60.9999 29.6974 60.3497 29.0471 59.5476 29.0471H46.9187C44.9546 29.0193 44.9546 31.9796 46.9187 31.9518H58.0952V40.6661H2.90476V31.9518H14.0827C16.0468 31.9796 16.0468 29.0193 14.0827 29.0471H1.45238ZM5.81236 43.5709H55.1891V46.4771H5.81236V43.5709ZM2.90618 49.3818C21.3021 49.3818 39.6979 49.3818 58.0938 49.3818V58.0933H2.90618V49.3818Z" fill="black"/>
<path d="M8.71421 36.3098C8.71421 36.695 8.56119 37.0644 8.28881 37.3368C8.01644 37.6092 7.64702 37.7622 7.26183 37.7622C6.87664 37.7622 6.50722 37.6092 6.23485 37.3368C5.96247 37.0644 5.80945 36.695 5.80945 36.3098C5.80945 36.1191 5.84701 35.9302 5.92 35.754C5.99299 35.5778 6.09997 35.4177 6.23484 35.2828C6.3697 35.148 6.52982 35.041 6.70603 34.968C6.88224 34.895 7.0711 34.8574 7.26183 34.8574C7.45256 34.8574 7.64142 34.895 7.81764 34.968C7.99385 35.041 8.15396 35.148 8.28882 35.2828C8.42369 35.4177 8.53067 35.5778 8.60366 35.754C8.67665 35.9302 8.71422 36.1191 8.71421 36.3098Z" fill="black"/>
<path d="M14.5238 36.3098C14.5238 36.695 14.3708 37.0644 14.0984 37.3368C13.826 37.6092 13.4566 37.7622 13.0714 37.7622C12.6862 37.7622 12.3168 37.6092 12.0444 37.3368C11.772 37.0644 11.619 36.695 11.619 36.3098C11.619 36.1191 11.6566 35.9302 11.7296 35.754C11.8026 35.5778 11.9095 35.4177 12.0444 35.2828C12.1793 35.148 12.3394 35.041 12.5156 34.968C12.6918 34.895 12.8807 34.8574 13.0714 34.8574C13.2621 34.8574 13.451 34.895 13.6272 34.968C13.8034 35.041 13.9635 35.148 14.0984 35.2828C14.2333 35.4177 14.3402 35.5778 14.4132 35.754C14.4862 35.9302 14.5238 36.1191 14.5238 36.3098Z" fill="black"/>
<path d="M53.7149 33.3859C53.3305 33.3915 52.964 33.5492 52.6957 33.8246C52.4275 34.0999 52.2792 34.4703 52.2836 34.8547V37.7602C52.2836 37.951 52.3212 38.1399 52.3942 38.3161C52.4672 38.4924 52.5742 38.6525 52.7091 38.7874C52.844 38.9223 53.0041 39.0294 53.1804 39.1024C53.3567 39.1754 53.5456 39.2129 53.7363 39.2129C53.9271 39.2129 54.116 39.1754 54.2923 39.1024C54.4685 39.0294 54.6287 38.9223 54.7636 38.7874C54.8985 38.6525 55.0055 38.4924 55.0785 38.3161C55.1515 38.1399 55.1891 37.951 55.1891 37.7602V34.8547C55.1913 34.6608 55.1546 34.4683 55.0812 34.2888C55.0079 34.1092 54.8993 33.9462 54.7619 33.8093C54.6245 33.6724 54.461 33.5644 54.2812 33.4917C54.1014 33.419 53.9088 33.383 53.7149 33.3859Z" fill="black"/>
<path d="M47.9093 33.3859C47.5249 33.3915 47.1584 33.5492 46.8901 33.8246C46.6218 34.0999 46.4736 34.4703 46.478 34.8547V37.7602C46.478 38.1455 46.6311 38.515 46.9035 38.7874C47.1759 39.0599 47.5454 39.2129 47.9307 39.2129C48.316 39.2129 48.6855 39.0599 48.958 38.7874C49.2304 38.515 49.3835 38.1455 49.3835 37.7602V34.8547C49.3857 34.6608 49.349 34.4683 49.2756 34.2888C49.2023 34.1092 49.0937 33.9462 48.9563 33.8093C48.8189 33.6724 48.6554 33.5644 48.4756 33.4917C48.2958 33.419 48.1032 33.383 47.9093 33.3859Z" fill="black"/>
<path d="M8.71421 53.7376C8.71422 53.9283 8.67665 54.1172 8.60366 54.2934C8.53067 54.4696 8.42369 54.6297 8.28882 54.7645C8.15396 54.8994 7.99385 55.0064 7.81764 55.0794C7.64142 55.1524 7.45256 55.19 7.26183 55.19C7.0711 55.19 6.88224 55.1524 6.70603 55.0794C6.52982 55.0064 6.3697 54.8994 6.23484 54.7645C6.09997 54.6297 5.99299 54.4696 5.92 54.2934C5.84701 54.1172 5.80945 53.9283 5.80945 53.7376C5.80945 53.3524 5.96247 52.9829 6.23485 52.7106C6.50722 52.4382 6.87664 52.2852 7.26183 52.2852C7.64702 52.2852 8.01644 52.4382 8.28881 52.7106C8.56119 52.9829 8.71421 53.3524 8.71421 53.7376Z" fill="black"/>
<path d="M14.5238 53.7376C14.5238 53.9283 14.4862 54.1172 14.4132 54.2934C14.3402 54.4696 14.2333 54.6297 14.0984 54.7645C13.9635 54.8994 13.8034 55.0064 13.6272 55.0794C13.451 55.1524 13.2621 55.19 13.0714 55.19C12.8807 55.19 12.6918 55.1524 12.5156 55.0794C12.3394 55.0064 12.1793 54.8994 12.0444 54.7645C11.9095 54.6297 11.8026 54.4696 11.7296 54.2934C11.6566 54.1172 11.619 53.9283 11.619 53.7376C11.619 53.3524 11.772 52.9829 12.0444 52.7106C12.3168 52.4382 12.6862 52.2852 13.0714 52.2852C13.4566 52.2852 13.826 52.4382 14.0984 52.7106C14.3708 52.9829 14.5238 53.3524 14.5238 53.7376Z" fill="black"/>
<path d="M20.3333 53.7376C20.3333 53.9283 20.2957 54.1172 20.2227 54.2934C20.1498 54.4696 20.0428 54.6297 19.9079 54.7645C19.773 54.8994 19.6129 55.0064 19.4367 55.0794C19.2605 55.1524 19.0716 55.19 18.8809 55.19C18.6902 55.19 18.5013 55.1524 18.3251 55.0794C18.1489 55.0064 17.9888 54.8994 17.8539 54.7645C17.7191 54.6297 17.6121 54.4696 17.5391 54.2934C17.4661 54.1172 17.4285 53.9283 17.4285 53.7376C17.4285 53.3524 17.5816 52.9829 17.8539 52.7106C18.1263 52.4382 18.4957 52.2852 18.8809 52.2852C19.2661 52.2852 19.6355 52.4382 19.9079 52.7106C20.1803 52.9829 20.3333 53.3524 20.3333 53.7376Z" fill="black"/>
<path d="M53.7148 50.8136C53.524 50.8164 53.3356 50.8567 53.1604 50.9323C52.9852 51.0079 52.8266 51.1173 52.6937 51.2542C52.5608 51.3911 52.4562 51.5529 52.3858 51.7302C52.3154 51.9076 52.2806 52.097 52.2835 52.2878V55.1879C52.2835 55.3787 52.3211 55.5676 52.3941 55.7439C52.4671 55.9201 52.5741 56.0803 52.709 56.2152C52.8439 56.3501 53.004 56.4571 53.1803 56.5301C53.3565 56.6031 53.5455 56.6407 53.7362 56.6407C53.927 56.6407 54.1159 56.6031 54.2922 56.5301C54.4684 56.4571 54.6286 56.3501 54.7635 56.2152C54.8984 56.0803 55.0054 55.9201 55.0784 55.7439C55.1514 55.5676 55.189 55.3787 55.189 55.1879V52.2878C55.1919 52.0934 55.1557 51.9004 55.0827 51.7203C55.0096 51.5401 54.9012 51.3764 54.7637 51.2389C54.6262 51.1014 54.4625 50.993 54.2824 50.9199C54.1022 50.8469 53.9092 50.8107 53.7148 50.8136Z" fill="black"/>
<path d="M47.9092 50.8136C47.7184 50.8164 47.53 50.8567 47.3548 50.9323C47.1796 51.0079 47.021 51.1173 46.8881 51.2542C46.7552 51.3911 46.6506 51.5529 46.5802 51.7302C46.5098 51.9076 46.475 52.097 46.4779 52.2878V55.1879C46.4779 55.5732 46.6309 55.9427 46.9034 56.2152C47.1758 56.4876 47.5453 56.6407 47.9306 56.6407C48.3159 56.6407 48.6854 56.4876 48.9579 56.2152C49.2303 55.9427 49.3834 55.5732 49.3834 55.1879V52.2878C49.3863 52.0934 49.3501 51.9004 49.2771 51.7203C49.204 51.5401 49.0956 51.3764 48.9581 51.2389C48.8206 51.1014 48.6569 50.993 48.4768 50.9199C48.2966 50.8469 48.1036 50.8107 47.9092 50.8136Z" fill="black"/>
<path d="M30.4971 0C24.8899 0 20.3347 4.56228 20.3347 10.1695V14.5224H18.8809C18.0788 14.5225 17.4286 15.1727 17.4285 15.9748V24.6919C17.4285 31.9084 23.2807 37.7605 30.4971 37.7605C37.7136 37.7605 43.5728 31.9084 43.5728 24.6919V15.9748C43.5727 15.1727 42.9225 14.5225 42.1204 14.5224H40.6666V10.1695C40.6666 4.56228 36.1043 0 30.4971 0ZM30.4971 2.90618C34.5453 2.90618 37.7619 6.12127 37.7619 10.1695V14.5224H23.2395V10.1695C23.2395 6.12127 26.4489 2.90618 30.4971 2.90618ZM20.3347 17.4272H40.6666V24.6919C40.6666 30.3494 36.1546 34.8557 30.4971 34.8557C24.8397 34.8557 20.3347 30.3494 20.3347 24.6919V17.4272Z" fill="black"/>
<path d="M31.9524 24.6907C31.9524 24.8814 31.9148 25.0703 31.8418 25.2465C31.7688 25.4227 31.6618 25.5828 31.527 25.7177C31.3921 25.8525 31.232 25.9595 31.0558 26.0325C30.8796 26.1055 30.6907 26.1431 30.5 26.1431C30.3093 26.1431 30.1204 26.1055 29.9442 26.0325C29.768 25.9595 29.6079 25.8525 29.473 25.7177C29.3381 25.5828 29.2311 25.4227 29.1582 25.2465C29.0852 25.0703 29.0476 24.8814 29.0476 24.6907C29.0476 24.5 29.0852 24.3111 29.1582 24.1349C29.2311 23.9586 29.3381 23.7986 29.473 23.6637C29.6079 23.5288 29.768 23.4218 29.9442 23.3488C30.1204 23.2759 30.3093 23.2383 30.5 23.2383C30.6907 23.2383 30.8796 23.2759 31.0558 23.3488C31.232 23.4218 31.3921 23.5288 31.527 23.6637C31.6618 23.7986 31.7688 23.9586 31.8418 24.1349C31.9148 24.3111 31.9524 24.5 31.9524 24.6907Z" fill="black"/>
</svg>
