<svg width="58" height="73" viewBox="0 0 58 73" fill="none" xmlns="http://www.w3.org/2000/svg">
<g clip-path="url(#clip0)">
<path d="M4.83449 3.65039C4.16718 3.65046 3.62623 4.19514 3.62616 4.86706V14.5992C3.62623 15.2711 4.16718 15.8158 4.83449 15.8159H6.04283V18.2492H4.83449C4.16672 18.2493 3.62557 18.7947 3.62616 19.4671V29.2028C3.62623 29.8747 4.16718 30.4194 4.83449 30.4194H19.3333C20.9452 30.4194 20.9452 27.9849 19.3333 27.9849H6.04283V20.6837H51.9571V27.9849H38.6678C37.0559 27.9849 37.0559 30.4194 38.6678 30.4194H53.1666C53.834 30.4194 54.3749 29.8747 54.375 29.2028V19.4671C54.3756 18.7947 53.8344 18.2493 53.1666 18.2492H51.9571V15.8159H53.1666C53.834 15.8158 54.3749 15.2711 54.375 14.5992V4.86706C54.3749 4.19514 53.834 3.65046 53.1666 3.65039H4.83449ZM6.04283 6.08491H51.9571V13.3813H6.04283V6.08491ZM8.46067 15.8159H49.5405V18.2492H8.46067V15.8159Z" fill="black"/>
<path d="M12.0833 9.73329C12.0833 9.89306 12.0521 10.0513 11.9913 10.1989C11.9306 10.3465 11.8416 10.4806 11.7294 10.5936C11.6172 10.7066 11.484 10.7962 11.3374 10.8574C11.1908 10.9185 11.0337 10.95 10.875 10.95C10.7163 10.95 10.5592 10.9185 10.4126 10.8574C10.266 10.7962 10.1328 10.7066 10.0206 10.5936C9.90836 10.4806 9.81936 10.3465 9.75863 10.1989C9.69791 10.0513 9.66666 9.89306 9.66666 9.73329C9.66666 9.41061 9.79397 9.10114 10.0206 8.87298C10.2472 8.64481 10.5545 8.5166 10.875 8.5166C11.1955 8.5166 11.5028 8.64481 11.7294 8.87298C11.956 9.10114 12.0833 9.41061 12.0833 9.73329Z" fill="black"/>
<path d="M16.9167 9.73329C16.9167 9.89306 16.8854 10.0513 16.8247 10.1989C16.764 10.3465 16.675 10.4806 16.5628 10.5936C16.4506 10.7066 16.3173 10.7962 16.1707 10.8574C16.0241 10.9185 15.867 10.95 15.7083 10.95C15.5497 10.95 15.3925 10.9185 15.2459 10.8574C15.0993 10.7962 14.9661 10.7066 14.8539 10.5936C14.7417 10.4806 14.6527 10.3465 14.592 10.1989C14.5313 10.0513 14.5 9.89306 14.5 9.73329C14.5 9.41061 14.6273 9.10114 14.8539 8.87298C15.0805 8.64481 15.3879 8.5166 15.7083 8.5166C16.0288 8.5166 16.3361 8.64481 16.5627 8.87298C16.7894 9.10114 16.9167 9.41061 16.9167 9.73329Z" fill="black"/>
<path d="M21.75 9.73329C21.75 9.89306 21.7188 10.0513 21.658 10.1989C21.5973 10.3465 21.5083 10.4806 21.3961 10.5936C21.2839 10.7066 21.1507 10.7962 21.0041 10.8574C20.8575 10.9185 20.7004 10.95 20.5417 10.95C20.383 10.95 20.2259 10.9185 20.0793 10.8574C19.9327 10.7962 19.7995 10.7066 19.6873 10.5936C19.575 10.4806 19.486 10.3465 19.4253 10.1989C19.3646 10.0513 19.3333 9.89306 19.3333 9.73329C19.3333 9.41061 19.4607 9.10114 19.6873 8.87298C19.9139 8.64481 20.2212 8.5166 20.5417 8.5166C20.8621 8.5166 21.1695 8.64481 21.3961 8.87298C21.6227 9.10114 21.75 9.41061 21.75 9.73329Z" fill="black"/>
<path d="M12.0833 24.3339C12.0833 24.4936 12.0521 24.6519 11.9913 24.7995C11.9306 24.9471 11.8416 25.0812 11.7294 25.1942C11.6172 25.3072 11.484 25.3968 11.3374 25.4579C11.1908 25.5191 11.0337 25.5506 10.875 25.5506C10.7163 25.5506 10.5592 25.5191 10.4126 25.4579C10.266 25.3968 10.1328 25.3072 10.0206 25.1942C9.90836 25.0812 9.81936 24.9471 9.75863 24.7995C9.69791 24.6519 9.66666 24.4936 9.66666 24.3339C9.66666 24.1741 9.69791 24.0159 9.75863 23.8682C9.81936 23.7206 9.90836 23.5865 10.0206 23.4736C10.1328 23.3606 10.266 23.271 10.4126 23.2098C10.5592 23.1487 10.7163 23.1172 10.875 23.1172C11.0337 23.1172 11.1908 23.1487 11.3374 23.2098C11.484 23.271 11.6172 23.3606 11.7294 23.4736C11.8416 23.5865 11.9306 23.7206 11.9913 23.8682C12.0521 24.0159 12.0833 24.1741 12.0833 24.3339Z" fill="black"/>
<path d="M16.9167 24.3339C16.9167 24.4936 16.8854 24.6519 16.8247 24.7995C16.764 24.9471 16.675 25.0812 16.5628 25.1942C16.4506 25.3072 16.3173 25.3968 16.1707 25.4579C16.0241 25.5191 15.867 25.5506 15.7083 25.5506C15.5497 25.5506 15.3925 25.5191 15.2459 25.4579C15.0993 25.3968 14.9661 25.3072 14.8539 25.1942C14.7417 25.0812 14.6527 24.9471 14.592 24.7995C14.5313 24.6519 14.5 24.4936 14.5 24.3339C14.5 24.1741 14.5313 24.0159 14.592 23.8682C14.6527 23.7206 14.7417 23.5865 14.8539 23.4736C14.9661 23.3606 15.0993 23.271 15.2459 23.2098C15.3925 23.1487 15.5497 23.1172 15.7083 23.1172C15.867 23.1172 16.0241 23.1487 16.1707 23.2098C16.3173 23.271 16.4506 23.3606 16.5628 23.4736C16.675 23.5865 16.764 23.7206 16.8247 23.8682C16.8854 24.0159 16.9167 24.1741 16.9167 24.3339Z" fill="black"/>
<path d="M21.75 24.3339C21.75 24.4936 21.7188 24.6519 21.658 24.7995C21.5973 24.9471 21.5083 25.0812 21.3961 25.1942C21.2839 25.3072 21.1507 25.3968 21.0041 25.4579C20.8575 25.5191 20.7004 25.5506 20.5417 25.5506C20.383 25.5506 20.2259 25.5191 20.0793 25.4579C19.9327 25.3968 19.7995 25.3072 19.6873 25.1942C19.575 25.0812 19.486 24.9471 19.4253 24.7995C19.3646 24.6519 19.3333 24.4936 19.3333 24.3339C19.3333 24.1741 19.3646 24.0159 19.4253 23.8682C19.486 23.7206 19.575 23.5865 19.6873 23.4736C19.7995 23.3606 19.9327 23.271 20.0793 23.2098C20.2259 23.1487 20.383 23.1172 20.5417 23.1172C20.7004 23.1172 20.8575 23.1487 21.0041 23.2098C21.1507 23.271 21.2839 23.3606 21.3961 23.4736C21.5083 23.5865 21.5973 23.7206 21.658 23.8682C21.7188 24.0159 21.75 24.1741 21.75 24.3339Z" fill="black"/>
<path d="M47.1054 21.8829C46.9466 21.8853 46.7899 21.9191 46.6441 21.9824C46.4984 22.0457 46.3664 22.1373 46.2559 22.252C46.1453 22.3667 46.0582 22.5022 45.9997 22.6508C45.9411 22.7994 45.9122 22.9581 45.9146 23.1179V25.5518C45.9146 25.8746 46.0419 26.1841 46.2686 26.4123C46.4952 26.6406 46.8026 26.7688 47.1232 26.7688C47.4437 26.7688 47.7512 26.6406 47.9778 26.4123C48.2045 26.1841 48.3318 25.8746 48.3318 25.5518V23.1179C48.3343 22.955 48.3042 22.7934 48.2434 22.6424C48.1826 22.4915 48.0924 22.3543 47.978 22.2392C47.8636 22.124 47.7275 22.0332 47.5776 21.972C47.4277 21.9108 47.2671 21.8805 47.1054 21.8829Z" fill="black"/>
<path d="M42.2753 21.8829C42.1166 21.8853 41.9599 21.9191 41.8141 21.9824C41.6683 22.0457 41.5364 22.1373 41.4258 22.252C41.3152 22.3667 41.2282 22.5022 41.1696 22.6508C41.111 22.7994 41.0821 22.9581 41.0845 23.1179V25.5518C41.0845 25.8746 41.2119 26.1841 41.4385 26.4123C41.6652 26.6406 41.9726 26.7688 42.2931 26.7688C42.6137 26.7688 42.9211 26.6406 43.1478 26.4123C43.3744 26.1841 43.5018 25.8746 43.5018 25.5518V23.1179C43.5042 22.955 43.4741 22.7934 43.4134 22.6424C43.3526 22.4915 43.2623 22.3543 43.148 22.2392C43.0336 22.124 42.8974 22.0332 42.7475 21.972C42.5976 21.9108 42.437 21.8805 42.2753 21.8829Z" fill="black"/>
<path d="M47.1054 7.28334C46.9466 7.28566 46.7899 7.31944 46.6441 7.38277C46.4984 7.44609 46.3664 7.53773 46.2559 7.65242C46.1453 7.7671 46.0582 7.9026 45.9997 8.05117C45.9411 8.19974 45.9122 8.35844 45.9146 8.51827V10.9522C45.9146 11.275 46.0419 11.5845 46.2686 11.8127C46.4952 12.0409 46.8026 12.1692 47.1232 12.1692C47.4437 12.1692 47.7512 12.0409 47.9778 11.8127C48.2045 11.5845 48.3318 11.275 48.3318 10.9522V8.51827C48.3343 8.35542 48.3042 8.19376 48.2434 8.04282C48.1826 7.89189 48.0924 7.75474 47.978 7.63958C47.8636 7.52441 47.7275 7.43358 47.5776 7.37238C47.4277 7.31119 47.2671 7.28089 47.1054 7.28334Z" fill="black"/>
<path d="M42.2753 7.28334C42.1166 7.28566 41.9599 7.31944 41.8141 7.38277C41.6683 7.44609 41.5364 7.53773 41.4258 7.65242C41.3152 7.7671 41.2282 7.9026 41.1696 8.05117C41.111 8.19974 41.0821 8.35844 41.0845 8.51827V10.9522C41.0845 11.275 41.2119 11.5845 41.4385 11.8127C41.6652 12.0409 41.9726 12.1692 42.2931 12.1692C42.6137 12.1692 42.9211 12.0409 43.1478 11.8127C43.3744 11.5845 43.5018 11.275 43.5018 10.9522V8.51827C43.5042 8.35542 43.4741 8.19376 43.4134 8.04282C43.3526 7.89189 43.2623 7.75474 43.148 7.63958C43.0336 7.52441 42.8974 7.43358 42.7475 7.37238C42.5976 7.31119 42.437 7.28089 42.2753 7.28334Z" fill="black"/>
<path d="M28.9799 27.9669C28.3123 27.9761 27.7792 28.5304 27.7893 29.2026V47.6677C26.3899 48.1735 25.3773 49.5244 25.3773 51.099C25.3773 53.1005 27.0099 54.749 28.9976 54.749C30.9853 54.749 32.6238 53.1005 32.6238 51.099C32.6238 49.5241 31.6079 48.1733 30.2071 47.6677V29.2026C30.2174 28.5163 29.6615 27.9566 28.9799 27.9669ZM28.9976 49.8812C29.6793 49.8812 30.2071 50.4127 30.2071 51.099C30.2071 51.7854 29.6793 52.3157 28.9976 52.3157C28.3159 52.3157 27.7893 51.7854 27.7893 51.099C27.7893 50.4127 28.3159 49.8812 28.9976 49.8812Z" fill="black"/>
<path d="M24.1501 27.9669C23.9913 27.9693 23.8346 28.0031 23.6888 28.0665C23.543 28.1299 23.411 28.2216 23.3005 28.3363C23.1899 28.4511 23.1028 28.5867 23.0443 28.7353C22.9858 28.8839 22.957 29.0427 22.9595 29.2026V45.7274L20.8886 47.8138C20.4155 47.5847 19.8892 47.4526 19.3333 47.4526C17.3456 47.4526 15.7071 49.0976 15.7071 51.0991C15.7071 53.1005 17.3456 54.7491 19.3333 54.7491C21.321 54.7491 22.9595 53.1005 22.9595 51.0991C22.9595 50.539 22.8279 50.0079 22.5996 49.5319L25.0198 47.0926C25.2471 46.8656 25.3757 46.5571 25.3773 46.2348V29.2026C25.3799 29.0396 25.3498 28.8778 25.2891 28.7267C25.2283 28.5757 25.138 28.4384 25.0235 28.3232C24.9091 28.2079 24.7728 28.117 24.6227 28.0558C24.4727 27.9946 24.312 27.9644 24.1501 27.9669ZM19.3333 49.8812C20.015 49.8812 20.5428 50.4127 20.5428 51.0991C20.5428 51.7854 20.015 52.3157 19.3333 52.3157C18.6516 52.3157 18.125 51.7854 18.125 51.0991C18.125 50.4127 18.6516 49.8812 19.3333 49.8812Z" fill="black"/>
<path d="M33.8144 27.9669C33.1468 27.9761 32.6138 28.5304 32.6238 29.2026V43.8014C32.6237 44.4736 33.1646 45.0182 33.8321 45.0181H37.6719C38.175 46.429 39.5201 47.4526 41.0845 47.4526C43.0722 47.4526 44.7107 45.8028 44.7107 43.8014C44.7107 41.8 43.0722 40.1502 41.0845 40.1502C39.5201 40.1502 38.175 41.1738 37.6719 42.5848H35.0416V29.2026C35.0519 28.5163 34.496 27.9566 33.8144 27.9669ZM41.0845 42.5848C41.7661 42.5848 42.2928 43.1151 42.2928 43.8014C42.2928 44.4878 41.7661 45.0181 41.0845 45.0181C40.4028 45.0181 39.8762 44.4878 39.8762 43.8014C39.8762 43.1151 40.4028 42.5848 41.0845 42.5848Z" fill="black"/>
</g>
<defs>
<clipPath id="clip0">
<rect width="58" height="73" fill="white"/>
</clipPath>
</defs>
</svg>
