<svg width="85" height="59" viewBox="0 0 85 59" fill="none" xmlns="http://www.w3.org/2000/svg">
<path d="M76.3891 46.6787H8.61087V50.5667H76.3891V46.6787Z" fill="black"/>
<path fill-rule="evenodd" clip-rule="evenodd" d="M0.498047 50.3926H84.502V53.7266C84.502 54.886 84.0404 55.999 83.217 56.8205C82.3952 57.6403 81.2796 58.1008 80.1175 58.1008H4.88252C3.72041 58.1008 2.60479 57.6403 1.78301 56.8205C0.95957 55.999 0.498047 54.886 0.498047 53.7266V50.3926ZM2.49023 52.3801H82.5098V53.7266C82.5098 54.3593 82.2574 54.9671 81.8092 55.4143C81.3609 55.8615 80.7517 56.1133 80.1175 56.1133H4.88252C4.24834 56.1133 3.63906 55.8615 3.19082 55.4143C2.74258 54.9671 2.49023 54.3593 2.49023 53.7266V52.3801Z" fill="black"/>
<path fill-rule="evenodd" clip-rule="evenodd" d="M13.7776 0.699219H71.2207V10.2061H13.7776V0.699219ZM15.7698 2.68672H69.2285V8.2186H15.7698V2.68672Z" fill="black"/>
<path fill-rule="evenodd" clip-rule="evenodd" d="M17.347 5.32129H59.8901V10.083H17.347V5.32129ZM19.3392 7.30879H57.8979V8.09551H19.3392V7.30879Z" fill="black"/>
<path d="M68.523 3.24512H66.5397V4.84687H68.523V3.24512Z" fill="black"/>
<path d="M66.0764 3.24512H64.0931V4.84687H66.0764V3.24512Z" fill="black"/>
<path d="M63.5958 3.24512H61.6125V4.84687H63.5958V3.24512Z" fill="black"/>
<path fill-rule="evenodd" clip-rule="evenodd" d="M13.7793 9.08789H71.2184V44.0583H13.7793V9.08789ZM27.8358 11.3536H28.8319V13.3411H27.8358H18.6485H17.6524V11.3536H18.6485H27.8358ZM37.7968 15.1845H38.7929V17.172H37.7968H18.6485H17.6524V15.1845H18.6485H37.7968ZM34.0709 23.464L31.9451 31.6023H30.4942L29.1105 26.7483C29.0511 26.5368 28.9767 26.2315 28.8874 25.8326C28.7981 25.4337 28.7441 25.1562 28.7255 25.0003C28.6883 25.2378 28.6279 25.5459 28.5442 25.9245C28.4606 26.303 28.3908 26.585 28.335 26.7705L26.9847 31.6023H25.534L24.4795 27.5276L23.4082 23.464H24.7697L25.9358 28.2067C26.1181 28.9674 26.2483 29.6391 26.3264 30.2218C26.3673 29.9064 26.4286 29.5538 26.5105 29.1641C26.5923 28.7745 26.6667 28.459 26.7337 28.2177L28.0616 23.464H29.3839L30.7454 28.2401C30.8756 28.6817 31.0132 29.3422 31.1583 30.2218C31.2141 29.6912 31.348 29.0157 31.5601 28.1956L32.7205 23.464H34.0709ZM46.0214 23.464L43.8955 31.6023H42.4447L41.061 26.7483C41.0014 26.5368 40.9271 26.2315 40.8379 25.8326C40.7485 25.4337 40.6946 25.1562 40.676 25.0003C40.6388 25.2378 40.5784 25.5459 40.4947 25.9245C40.411 26.303 40.3413 26.585 40.2855 26.7705L38.9351 31.6023H37.4845L36.43 27.5276L35.3587 23.464H36.72L37.8863 28.2067C38.0685 28.9674 38.1987 29.6391 38.2767 30.2218C38.3177 29.9064 38.379 29.5538 38.4608 29.1641C38.5427 28.7745 38.6172 28.459 38.6841 28.2177L40.0121 23.464H41.3344L42.6959 28.2401C42.8261 28.6817 42.9637 29.3422 43.1088 30.2218C43.1646 29.6912 43.2985 29.0157 43.5105 28.1956L44.671 23.464H46.0214ZM57.9717 23.464L55.8458 31.6023H54.3952L53.0114 26.7483C52.9519 26.5368 52.8775 26.2315 52.7883 25.8326C52.699 25.4337 52.6451 25.1562 52.6265 25.0003C52.5893 25.2378 52.5288 25.5459 52.4452 25.9245C52.3615 26.303 52.2917 26.585 52.2358 26.7705L50.8856 31.6023H49.435L48.3804 27.5276L47.3091 23.464H48.6705L49.8366 28.2067C50.0188 28.9674 50.1491 29.6391 50.2272 30.2218C50.2682 29.9064 50.3295 29.5538 50.4113 29.1641C50.4932 28.7745 50.5676 28.459 50.6346 28.2177L51.9626 23.464H53.2849L54.6462 28.2401C54.7765 28.6817 54.9142 29.3422 55.0592 30.2218C55.115 29.6912 55.2489 29.0157 55.4608 28.1956L56.6215 23.464H57.9717ZM59.9346 30.9065C59.9346 30.6355 60.0053 30.4277 60.1466 30.2829C60.288 30.1383 60.4926 30.066 60.7604 30.066C61.032 30.066 61.2385 30.1411 61.3798 30.2914C61.5211 30.4417 61.5918 30.6467 61.5918 30.9065C61.5918 31.17 61.5202 31.3787 61.377 31.5327C61.2338 31.6867 61.0282 31.7636 60.7604 31.7636C60.4926 31.7636 60.288 31.6875 60.1466 31.5354C60.0053 31.3832 59.9346 31.1736 59.9346 30.9065ZM66.3515 38.3721H67.3476V40.3596H66.3515H40.5626H39.5665V38.3721H40.5626H66.3515Z" fill="black"/>
<path d="M9.5459 51.2621V52.2559H7.55371V51.2621V7.12305H14.6094H15.6055V9.11055H14.6094H9.5459V51.2621Z" fill="black"/>
<path d="M75.3711 51.2621V52.2559H77.3633V51.2621V7.12305H70.3076H69.3115V9.11055H70.3076H75.3711V51.2621Z" fill="black"/>
</svg>
