<svg width="88" height="24" viewBox="0 0 88 24" fill="none" xmlns="http://www.w3.org/2000/svg">
<path d="M8.88 10.192C8.624 9.72267 8.272 9.36533 7.824 9.12C7.376 8.87467 6.85333 8.752 6.256 8.752C5.59467 8.752 5.008 8.90133 4.496 9.2C3.984 9.49867 3.584 9.92533 3.296 10.48C3.008 11.0347 2.864 11.6747 2.864 12.4C2.864 13.1467 3.008 13.7973 3.296 14.352C3.59467 14.9067 4.00533 15.3333 4.528 15.632C5.05067 15.9307 5.65867 16.08 6.352 16.08C7.20533 16.08 7.904 15.856 8.448 15.408C8.992 14.9493 9.34933 14.3147 9.52 13.504H5.68V11.792H11.728V13.744C11.5787 14.5227 11.2587 15.2427 10.768 15.904C10.2773 16.5653 9.64267 17.0987 8.864 17.504C8.096 17.8987 7.232 18.096 6.272 18.096C5.19467 18.096 4.21867 17.856 3.344 17.376C2.48 16.8853 1.79733 16.208 1.296 15.344C0.805333 14.48 0.56 13.4987 0.56 12.4C0.56 11.3013 0.805333 10.32 1.296 9.456C1.79733 8.58133 2.48 7.904 3.344 7.424C4.21867 6.93333 5.18933 6.688 6.256 6.688C7.51467 6.688 8.608 6.99733 9.536 7.616C10.464 8.224 11.104 9.08267 11.456 10.192H8.88Z" fill="white"/>
<path d="M24.712 10.976V15.264C24.712 15.5627 24.7813 15.7813 24.92 15.92C25.0693 16.048 25.3147 16.112 25.656 16.112H26.696V18H25.288C23.4 18 22.456 17.0827 22.456 15.248V10.976H21.4V9.136H22.456V6.944H24.712V9.136H26.696V10.976H24.712ZM35.7471 13.376C35.7471 13.696 35.7258 13.984 35.6831 14.24H29.2031C29.2565 14.88 29.4805 15.3813 29.8751 15.744C30.2698 16.1067 30.7551 16.288 31.3311 16.288C32.1631 16.288 32.7551 15.9307 33.1071 15.216H35.5231C35.2671 16.0693 34.7765 16.7733 34.0511 17.328C33.3258 17.872 32.4351 18.144 31.3791 18.144C30.5258 18.144 29.7578 17.9573 29.0751 17.584C28.4031 17.2 27.8751 16.6613 27.4911 15.968C27.1178 15.2747 26.9311 14.4747 26.9311 13.568C26.9311 12.6507 27.1178 11.8453 27.4911 11.152C27.8645 10.4587 28.3871 9.92533 29.0591 9.552C29.7311 9.17867 30.5045 8.992 31.3791 8.992C32.2218 8.992 32.9738 9.17333 33.6351 9.536C34.3071 9.89867 34.8245 10.416 35.1871 11.088C35.5605 11.7493 35.7471 12.512 35.7471 13.376ZM33.4271 12.736C33.4165 12.16 33.2085 11.7013 32.8031 11.36C32.3978 11.008 31.9018 10.832 31.3151 10.832C30.7605 10.832 30.2911 11.0027 29.9071 11.344C29.5338 11.6747 29.3045 12.1387 29.2191 12.736H33.4271ZM41.8301 18L38.8221 14.224V18H36.5821V6.16H38.8221V12.896L41.7981 9.136H44.7101L40.8061 13.584L44.7421 18H41.8301ZM53.3659 13.376C53.3659 13.696 53.3445 13.984 53.3019 14.24H46.8219C46.8752 14.88 47.0992 15.3813 47.4939 15.744C47.8885 16.1067 48.3739 16.288 48.9499 16.288C49.7819 16.288 50.3739 15.9307 50.7259 15.216H53.1419C52.8859 16.0693 52.3952 16.7733 51.6699 17.328C50.9445 17.872 50.0539 18.144 48.9979 18.144C48.1445 18.144 47.3765 17.9573 46.6939 17.584C46.0219 17.2 45.4939 16.6613 45.1099 15.968C44.7365 15.2747 44.5499 14.4747 44.5499 13.568C44.5499 12.6507 44.7365 11.8453 45.1099 11.152C45.4832 10.4587 46.0059 9.92533 46.6779 9.552C47.3499 9.17867 48.1232 8.992 48.9979 8.992C49.8405 8.992 50.5925 9.17333 51.2539 9.536C51.9259 9.89867 52.4432 10.416 52.8059 11.088C53.1792 11.7493 53.3659 12.512 53.3659 13.376ZM51.0459 12.736C51.0352 12.16 50.8272 11.7013 50.4219 11.36C50.0165 11.008 49.5205 10.832 48.9339 10.832C48.3792 10.832 47.9099 11.0027 47.5259 11.344C47.1525 11.6747 46.9232 12.1387 46.8379 12.736H51.0459ZM62.4409 13.376C62.4409 13.696 62.4195 13.984 62.3769 14.24H55.8969C55.9502 14.88 56.1742 15.3813 56.5689 15.744C56.9635 16.1067 57.4489 16.288 58.0249 16.288C58.8569 16.288 59.4489 15.9307 59.8009 15.216H62.2169C61.9609 16.0693 61.4702 16.7733 60.7449 17.328C60.0195 17.872 59.1289 18.144 58.0729 18.144C57.2195 18.144 56.4515 17.9573 55.7689 17.584C55.0969 17.2 54.5689 16.6613 54.1849 15.968C53.8115 15.2747 53.6249 14.4747 53.6249 13.568C53.6249 12.6507 53.8115 11.8453 54.1849 11.152C54.5582 10.4587 55.0809 9.92533 55.7529 9.552C56.4249 9.17867 57.1982 8.992 58.0729 8.992C58.9155 8.992 59.6675 9.17333 60.3289 9.536C61.0009 9.89867 61.5182 10.416 61.8809 11.088C62.2542 11.7493 62.4409 12.512 62.4409 13.376ZM60.1209 12.736C60.1102 12.16 59.9022 11.7013 59.4969 11.36C59.0915 11.008 58.5955 10.832 58.0089 10.832C57.4542 10.832 56.9849 11.0027 56.6009 11.344C56.2275 11.6747 55.9982 12.1387 55.9129 12.736H60.1209ZM65.5159 10.416C65.8039 10.0107 66.1985 9.67467 66.6999 9.408C67.2119 9.13067 67.7932 8.992 68.4439 8.992C69.2012 8.992 69.8839 9.17867 70.4919 9.552C71.1105 9.92533 71.5959 10.4587 71.9479 11.152C72.3105 11.8347 72.4919 12.6293 72.4919 13.536C72.4919 14.4427 72.3105 15.248 71.9479 15.952C71.5959 16.6453 71.1105 17.184 70.4919 17.568C69.8839 17.952 69.2012 18.144 68.4439 18.144C67.7932 18.144 67.2172 18.0107 66.7159 17.744C66.2252 17.4773 65.8252 17.1413 65.5159 16.736V22.224H63.2759V9.136H65.5159V10.416ZM70.2039 13.536C70.2039 13.0027 70.0919 12.544 69.8679 12.16C69.6545 11.7653 69.3665 11.4667 69.0039 11.264C68.6519 11.0613 68.2679 10.96 67.8519 10.96C67.4465 10.96 67.0625 11.0667 66.6999 11.28C66.3479 11.4827 66.0599 11.7813 65.8359 12.176C65.6225 12.5707 65.5159 13.0347 65.5159 13.568C65.5159 14.1013 65.6225 14.5653 65.8359 14.96C66.0599 15.3547 66.3479 15.6587 66.6999 15.872C67.0625 16.0747 67.4465 16.176 67.8519 16.176C68.2679 16.176 68.6519 16.0693 69.0039 15.856C69.3665 15.6427 69.6545 15.3387 69.8679 14.944C70.0919 14.5493 70.2039 14.08 70.2039 13.536ZM81.5596 13.376C81.5596 13.696 81.5383 13.984 81.4956 14.24H75.0156C75.069 14.88 75.293 15.3813 75.6876 15.744C76.0823 16.1067 76.5676 16.288 77.1436 16.288C77.9756 16.288 78.5676 15.9307 78.9196 15.216H81.3356C81.0796 16.0693 80.589 16.7733 79.8636 17.328C79.1383 17.872 78.2476 18.144 77.1916 18.144C76.3383 18.144 75.5703 17.9573 74.8876 17.584C74.2156 17.2 73.6876 16.6613 73.3036 15.968C72.9303 15.2747 72.7436 14.4747 72.7436 13.568C72.7436 12.6507 72.9303 11.8453 73.3036 11.152C73.677 10.4587 74.1996 9.92533 74.8716 9.552C75.5436 9.17867 76.317 8.992 77.1916 8.992C78.0343 8.992 78.7863 9.17333 79.4476 9.536C80.1196 9.89867 80.637 10.416 80.9996 11.088C81.373 11.7493 81.5596 12.512 81.5596 13.376ZM79.2396 12.736C79.229 12.16 79.021 11.7013 78.6156 11.36C78.2103 11.008 77.7143 10.832 77.1276 10.832C76.573 10.832 76.1036 11.0027 75.7196 11.344C75.3463 11.6747 75.117 12.1387 75.0316 12.736H79.2396ZM84.6346 10.512C84.9226 10.0427 85.296 9.67467 85.7546 9.408C86.224 9.14133 86.7573 9.008 87.3546 9.008V11.36H86.7626C86.0586 11.36 85.5253 11.5253 85.1626 11.856C84.8106 12.1867 84.6346 12.7627 84.6346 13.584V18H82.3946V9.136H84.6346V10.512Z" fill="white"/>
<path d="M17 15.381C17.55 15.381 18 14.9095 18 14.3333C18 13.7571 17.55 13.2857 17 13.2857C16.45 13.2857 16 13.7571 16 14.3333C16 14.9095 16.45 15.381 17 15.381ZM20 10.6667H19.5V9.61905C19.5 8.17333 18.38 7 17 7C15.62 7 14.5 8.17333 14.5 9.61905H16C16 8.72333 16.145 8.5 17 8.5C17.855 8.5 18 8.72333 18 9.61905V10.6667H14C13.45 10.6667 13 11.1381 13 11.7143V16.9524C13 17.5286 13.45 18 14 18H20C20.55 18 21 17.5286 21 16.9524V11.7143C21 11.1381 20.55 10.6667 20 10.6667ZM18.55 16H15.45V12.7143H18.55V16Z" fill="white"/>
</svg>
