<svg width="20" height="25" viewBox="0 0 20 25" fill="none" xmlns="http://www.w3.org/2000/svg">
<path fill-rule="evenodd" clip-rule="evenodd" d="M10 0C13.3333 2.77806 16.6664 3.24111 18.5184 3.24111C19.4445 3.24111 20 3.125 20 3.125V9.09028C20 21.5903 10 25 10 25C10 25 0 21.5903 0 9.09028V3.125C0 3.125 0.666667 3.24111 1.70373 3.24111C3.77787 3.24111 7.33333 2.77778 10 0ZM6.09474 18L7.06316 15.3362H12.9158L13.8842 18H17L11.7158 4H8.28421L3 18H6.09474ZM9.98947 7.24464L12.1158 13.093H7.86316L9.98947 7.24464Z" fill="white"/>
<path opacity="0.75" fill-rule="evenodd" clip-rule="evenodd" d="M16 7.20521L9.33571 19L4 13.3643L5.6141 11.697L8.87816 15.1445L14.045 6L16 7.20521Z" fill="#EFEFEF"/>
</svg>
