<svg width="84" height="25" viewBox="0 0 84 25" fill="none" xmlns="http://www.w3.org/2000/svg">
<path fill-rule="evenodd" clip-rule="evenodd" d="M10 0C13.3333 2.77806 16.6664 3.24111 18.5184 3.24111C19.4445 3.24111 20 3.125 20 3.125V9.09028C20 21.5903 10 25 10 25C10 25 0 21.5903 0 9.09028V3.125C0 3.125 0.666667 3.24111 1.70373 3.24111C3.77787 3.24111 7.33333 2.77778 10 0ZM6.09474 18L7.06316 15.3362H12.9158L13.8842 18H17L11.7158 4H8.28421L3 18H6.09474ZM9.98947 7.24464L12.1158 13.093H7.86316L9.98947 7.24464Z" fill="white"/>
<path opacity="0.75" fill-rule="evenodd" clip-rule="evenodd" d="M16 7.20521L9.33571 19L4 13.3643L5.6141 11.697L8.87816 15.1445L14.045 6L16 7.20521Z" fill="#EFEFEF"/>
<path d="M28.696 10.798V18H26.863V17.09C26.629 17.402 26.3213 17.649 25.94 17.831C25.5673 18.0043 25.16 18.091 24.718 18.091C24.1547 18.091 23.6563 17.974 23.223 17.74C22.7897 17.4973 22.4473 17.1463 22.196 16.687C21.9533 16.219 21.832 15.6643 21.832 15.023V10.798H23.652V14.763C23.652 15.335 23.795 15.777 24.081 16.089C24.367 16.3923 24.757 16.544 25.251 16.544C25.7537 16.544 26.148 16.3923 26.434 16.089C26.72 15.777 26.863 15.335 26.863 14.763V10.798H28.696ZM32.6107 12.293V15.777C32.6107 16.0197 32.6671 16.1973 32.7797 16.31C32.9011 16.414 33.1004 16.466 33.3777 16.466H34.2227V18H33.0787C31.5447 18 30.7777 17.2547 30.7777 15.764V12.293H29.9197V10.798H30.7777V9.017H32.6107V10.798H34.2227V12.293H32.6107ZM39.5878 10.694C40.1338 10.694 40.6191 10.8153 41.0438 11.058C41.4684 11.292 41.7978 11.643 42.0318 12.111C42.2744 12.5703 42.3958 13.125 42.3958 13.775V18H40.5758V14.022C40.5758 13.45 40.4328 13.0123 40.1468 12.709C39.8608 12.397 39.4708 12.241 38.9768 12.241C38.4741 12.241 38.0754 12.397 37.7808 12.709C37.4948 13.0123 37.3518 13.45 37.3518 14.022V18H35.5318V8.38H37.3518V11.695C37.5858 11.383 37.8978 11.1403 38.2878 10.967C38.6778 10.785 39.1111 10.694 39.5878 10.694ZM50.8215 14.243C50.8215 14.503 50.8042 14.737 50.7695 14.945H45.5045C45.5478 15.465 45.7298 15.8723 46.0505 16.167C46.3712 16.4617 46.7655 16.609 47.2335 16.609C47.9095 16.609 48.3905 16.3187 48.6765 15.738H50.6395C50.4315 16.4313 50.0328 17.0033 49.4435 17.454C48.8542 17.896 48.1305 18.117 47.2725 18.117C46.5792 18.117 45.9552 17.9653 45.4005 17.662C44.8545 17.35 44.4255 16.9123 44.1135 16.349C43.8102 15.7857 43.6585 15.1357 43.6585 14.399C43.6585 13.6537 43.8102 12.9993 44.1135 12.436C44.4168 11.8727 44.8415 11.4393 45.3875 11.136C45.9335 10.8327 46.5618 10.681 47.2725 10.681C47.9572 10.681 48.5682 10.8283 49.1055 11.123C49.6515 11.4177 50.0718 11.838 50.3665 12.384C50.6698 12.9213 50.8215 13.541 50.8215 14.243ZM48.9365 13.723C48.9278 13.255 48.7588 12.8823 48.4295 12.605C48.1002 12.319 47.6972 12.176 47.2205 12.176C46.7698 12.176 46.3885 12.3147 46.0765 12.592C45.7732 12.8607 45.5868 13.2377 45.5175 13.723H48.9365ZM56.1409 10.694C56.9989 10.694 57.6923 10.967 58.2209 11.513C58.7496 12.0503 59.0139 12.8043 59.0139 13.775V18H57.1939V14.022C57.1939 13.45 57.0509 13.0123 56.7649 12.709C56.4789 12.397 56.0889 12.241 55.5949 12.241C55.0923 12.241 54.6936 12.397 54.3989 12.709C54.1129 13.0123 53.9699 13.45 53.9699 14.022V18H52.1499V10.798H53.9699V11.695C54.2126 11.383 54.5203 11.1403 54.8929 10.967C55.2743 10.785 55.6903 10.694 56.1409 10.694ZM62.8637 12.293V15.777C62.8637 16.0197 62.92 16.1973 63.0327 16.31C63.154 16.414 63.3533 16.466 63.6307 16.466H64.4757V18H63.3317C61.7977 18 61.0307 17.2547 61.0307 15.764V12.293H60.1727V10.798H61.0307V9.017H62.8637V10.798H64.4757V12.293H62.8637ZM66.7077 9.94C66.387 9.94 66.1184 9.84033 65.9017 9.641C65.6937 9.433 65.5897 9.17733 65.5897 8.874C65.5897 8.57067 65.6937 8.31933 65.9017 8.12C66.1184 7.912 66.387 7.808 66.7077 7.808C67.0284 7.808 67.2927 7.912 67.5007 8.12C67.7174 8.31933 67.8257 8.57067 67.8257 8.874C67.8257 9.17733 67.7174 9.433 67.5007 9.641C67.2927 9.84033 67.0284 9.94 66.7077 9.94ZM67.6047 10.798V18H65.7847V10.798H67.6047ZM68.9349 14.399C68.9349 13.6537 69.0865 13.0037 69.3899 12.449C69.6932 11.8857 70.1135 11.4523 70.6509 11.149C71.1882 10.837 71.8035 10.681 72.4969 10.681C73.3895 10.681 74.1262 10.9063 74.7069 11.357C75.2962 11.799 75.6905 12.423 75.8899 13.229H73.9269C73.8229 12.917 73.6452 12.6743 73.3939 12.501C73.1512 12.319 72.8479 12.228 72.4839 12.228C71.9639 12.228 71.5522 12.4187 71.2489 12.8C70.9455 13.1727 70.7939 13.7057 70.7939 14.399C70.7939 15.0837 70.9455 15.6167 71.2489 15.998C71.5522 16.3707 71.9639 16.557 72.4839 16.557C73.2205 16.557 73.7015 16.2277 73.9269 15.569H75.8899C75.6905 16.349 75.2962 16.9687 74.7069 17.428C74.1175 17.8873 73.3809 18.117 72.4969 18.117C71.8035 18.117 71.1882 17.9653 70.6509 17.662C70.1135 17.35 69.6932 16.9167 69.3899 16.362C69.0865 15.7987 68.9349 15.1443 68.9349 14.399ZM81.4872 18L79.0432 14.932V18H77.2232V8.38H79.0432V13.853L81.4612 10.798H83.8272L80.6552 14.412L83.8532 18H81.4872Z" fill="white"/>
</svg>
