<svg width="53" height="35" viewBox="0 0 53 35" fill="none" xmlns="http://www.w3.org/2000/svg">
<path d="M14.88 10.192C14.624 9.72267 14.272 9.36533 13.824 9.12C13.376 8.87467 12.8533 8.752 12.256 8.752C11.5947 8.752 11.008 8.90133 10.496 9.2C9.984 9.49867 9.584 9.92533 9.296 10.48C9.008 11.0347 8.864 11.6747 8.864 12.4C8.864 13.1467 9.008 13.7973 9.296 14.352C9.59467 14.9067 10.0053 15.3333 10.528 15.632C11.0507 15.9307 11.6587 16.08 12.352 16.08C13.2053 16.08 13.904 15.856 14.448 15.408C14.992 14.9493 15.3493 14.3147 15.52 13.504H11.68V11.792H17.728V13.744C17.5787 14.5227 17.2587 15.2427 16.768 15.904C16.2773 16.5653 15.6427 17.0987 14.864 17.504C14.096 17.8987 13.232 18.096 12.272 18.096C11.1947 18.096 10.2187 17.856 9.344 17.376C8.48 16.8853 7.79733 16.208 7.296 15.344C6.80533 14.48 6.56 13.4987 6.56 12.4C6.56 11.3013 6.80533 10.32 7.296 9.456C7.79733 8.58133 8.48 7.904 9.344 7.424C10.2187 6.93333 11.1893 6.688 12.256 6.688C13.5147 6.688 14.608 6.99733 15.536 7.616C16.464 8.224 17.104 9.08267 17.456 10.192H14.88Z" fill="white"/>
<path d="M30.712 10.976V15.264C30.712 15.5627 30.7813 15.7813 30.92 15.92C31.0693 16.048 31.3147 16.112 31.656 16.112H32.696V18H31.288C29.4 18 28.456 17.0827 28.456 15.248V10.976H27.4V9.136H28.456V6.944H30.712V9.136H32.696V10.976H30.712ZM41.7471 13.376C41.7471 13.696 41.7258 13.984 41.6831 14.24H35.2031C35.2565 14.88 35.4805 15.3813 35.8751 15.744C36.2698 16.1067 36.7551 16.288 37.3311 16.288C38.1631 16.288 38.7551 15.9307 39.1071 15.216H41.5231C41.2671 16.0693 40.7765 16.7733 40.0511 17.328C39.3258 17.872 38.4351 18.144 37.3791 18.144C36.5258 18.144 35.7578 17.9573 35.0751 17.584C34.4031 17.2 33.8751 16.6613 33.4911 15.968C33.1178 15.2747 32.9311 14.4747 32.9311 13.568C32.9311 12.6507 33.1178 11.8453 33.4911 11.152C33.8645 10.4587 34.3871 9.92533 35.0591 9.552C35.7311 9.17867 36.5045 8.992 37.3791 8.992C38.2218 8.992 38.9738 9.17333 39.6351 9.536C40.3071 9.89867 40.8245 10.416 41.1871 11.088C41.5605 11.7493 41.7471 12.512 41.7471 13.376ZM39.4271 12.736C39.4165 12.16 39.2085 11.7013 38.8031 11.36C38.3978 11.008 37.9018 10.832 37.3151 10.832C36.7605 10.832 36.2911 11.0027 35.9071 11.344C35.5338 11.6747 35.3045 12.1387 35.2191 12.736H39.4271Z" fill="white"/>
<path d="M23 15.381C23.55 15.381 24 14.9095 24 14.3333C24 13.7571 23.55 13.2857 23 13.2857C22.45 13.2857 22 13.7571 22 14.3333C22 14.9095 22.45 15.381 23 15.381ZM26 10.6667H25.5V9.61905C25.5 8.17333 24.38 7 23 7C21.62 7 20.5 8.17333 20.5 9.61905H22C22 8.72333 22.145 8.5 23 8.5C23.855 8.5 24 8.72333 24 9.61905V10.6667H20C19.45 10.6667 19 11.1381 19 11.7143V16.9524C19 17.5286 19.45 18 20 18H26C26.55 18 27 17.5286 27 16.9524V11.7143C27 11.1381 26.55 10.6667 26 10.6667ZM24.55 16H21.45V12.7143H24.55V16Z" fill="white"/>
<path d="M6.352 29L3.344 25.224V29H1.104V17.16H3.344V23.896L6.32 20.136H9.232L5.328 24.584L9.264 29H6.352ZM17.8878 24.376C17.8878 24.696 17.8664 24.984 17.8238 25.24H11.3438C11.3971 25.88 11.6211 26.3813 12.0157 26.744C12.4104 27.1067 12.8958 27.288 13.4718 27.288C14.3038 27.288 14.8958 26.9307 15.2478 26.216H17.6638C17.4078 27.0693 16.9171 27.7733 16.1918 28.328C15.4664 28.872 14.5758 29.144 13.5198 29.144C12.6664 29.144 11.8984 28.9573 11.2157 28.584C10.5437 28.2 10.0157 27.6613 9.63175 26.968C9.25842 26.2747 9.07175 25.4747 9.07175 24.568C9.07175 23.6507 9.25842 22.8453 9.63175 22.152C10.0051 21.4587 10.5277 20.9253 11.1997 20.552C11.8718 20.1787 12.6451 19.992 13.5198 19.992C14.3624 19.992 15.1144 20.1733 15.7758 20.536C16.4478 20.8987 16.9651 21.416 17.3278 22.088C17.7011 22.7493 17.8878 23.512 17.8878 24.376ZM15.5677 23.736C15.5571 23.16 15.3491 22.7013 14.9437 22.36C14.5384 22.008 14.0424 21.832 13.4557 21.832C12.9011 21.832 12.4318 22.0027 12.0477 22.344C11.6744 22.6747 11.4451 23.1387 11.3598 23.736H15.5677ZM26.9628 24.376C26.9628 24.696 26.9414 24.984 26.8988 25.24H20.4187C20.4721 25.88 20.6961 26.3813 21.0907 26.744C21.4854 27.1067 21.9707 27.288 22.5468 27.288C23.3787 27.288 23.9707 26.9307 24.3228 26.216H26.7388C26.4827 27.0693 25.9921 27.7733 25.2667 28.328C24.5414 28.872 23.6508 29.144 22.5947 29.144C21.7414 29.144 20.9734 28.9573 20.2907 28.584C19.6187 28.2 19.0907 27.6613 18.7067 26.968C18.3334 26.2747 18.1467 25.4747 18.1467 24.568C18.1467 23.6507 18.3334 22.8453 18.7067 22.152C19.0801 21.4587 19.6027 20.9253 20.2747 20.552C20.9467 20.1787 21.7201 19.992 22.5947 19.992C23.4374 19.992 24.1894 20.1733 24.8507 20.536C25.5228 20.8987 26.0401 21.416 26.4028 22.088C26.7761 22.7493 26.9628 23.512 26.9628 24.376ZM24.6427 23.736C24.6321 23.16 24.4241 22.7013 24.0187 22.36C23.6134 22.008 23.1174 21.832 22.5307 21.832C21.9761 21.832 21.5067 22.0027 21.1227 22.344C20.7494 22.6747 20.5201 23.1387 20.4347 23.736H24.6427ZM30.0378 21.416C30.3258 21.0107 30.7204 20.6747 31.2218 20.408C31.7338 20.1307 32.3151 19.992 32.9658 19.992C33.7231 19.992 34.4058 20.1787 35.0138 20.552C35.6324 20.9253 36.1178 21.4587 36.4698 22.152C36.8324 22.8347 37.0138 23.6293 37.0138 24.536C37.0138 25.4427 36.8324 26.248 36.4698 26.952C36.1178 27.6453 35.6324 28.184 35.0138 28.568C34.4058 28.952 33.7231 29.144 32.9658 29.144C32.3151 29.144 31.7391 29.0107 31.2378 28.744C30.7471 28.4773 30.3471 28.1413 30.0378 27.736V33.224H27.7978V20.136H30.0378V21.416ZM34.7258 24.536C34.7258 24.0027 34.6138 23.544 34.3898 23.16C34.1764 22.7653 33.8884 22.4667 33.5258 22.264C33.1738 22.0613 32.7898 21.96 32.3738 21.96C31.9684 21.96 31.5844 22.0667 31.2218 22.28C30.8698 22.4827 30.5818 22.7813 30.3578 23.176C30.1444 23.5707 30.0378 24.0347 30.0378 24.568C30.0378 25.1013 30.1444 25.5653 30.3578 25.96C30.5818 26.3547 30.8698 26.6587 31.2218 26.872C31.5844 27.0747 31.9684 27.176 32.3738 27.176C32.7898 27.176 33.1738 27.0693 33.5258 26.856C33.8884 26.6427 34.1764 26.3387 34.3898 25.944C34.6138 25.5493 34.7258 25.08 34.7258 24.536ZM46.0815 24.376C46.0815 24.696 46.0602 24.984 46.0175 25.24H39.5375C39.5908 25.88 39.8148 26.3813 40.2095 26.744C40.6042 27.1067 41.0895 27.288 41.6655 27.288C42.4975 27.288 43.0895 26.9307 43.4415 26.216H45.8575C45.6015 27.0693 45.1108 27.7733 44.3855 28.328C43.6602 28.872 42.7695 29.144 41.7135 29.144C40.8602 29.144 40.0922 28.9573 39.4095 28.584C38.7375 28.2 38.2095 27.6613 37.8255 26.968C37.4522 26.2747 37.2655 25.4747 37.2655 24.568C37.2655 23.6507 37.4522 22.8453 37.8255 22.152C38.1988 21.4587 38.7215 20.9253 39.3935 20.552C40.0655 20.1787 40.8388 19.992 41.7135 19.992C42.5562 19.992 43.3082 20.1733 43.9695 20.536C44.6415 20.8987 45.1588 21.416 45.5215 22.088C45.8948 22.7493 46.0815 23.512 46.0815 24.376ZM43.7615 23.736C43.7508 23.16 43.5428 22.7013 43.1375 22.36C42.7322 22.008 42.2362 21.832 41.6495 21.832C41.0948 21.832 40.6255 22.0027 40.2415 22.344C39.8682 22.6747 39.6388 23.1387 39.5535 23.736H43.7615ZM49.1565 21.512C49.4445 21.0427 49.8178 20.6747 50.2765 20.408C50.7458 20.1413 51.2792 20.008 51.8765 20.008V22.36H51.2845C50.5805 22.36 50.0472 22.5253 49.6845 22.856C49.3325 23.1867 49.1565 23.7627 49.1565 24.584V29H46.9165V20.136H49.1565V21.512Z" fill="white"/>
</svg>
